<svg width="131" height="17" viewBox="0 0 131 17" fill="none" xmlns="http://www.w3.org/2000/svg">
<g clip-path="url(#clip0_2436_2352)">
<g clip-path="url(#clip1_2436_2352)">
<path d="M112.572 16.7752C111.735 16.4818 111.073 16.0417 110.481 15.3864C109.916 14.7612 109.749 14.4815 109.473 13.7028L109.283 13.1613H110.549C111.811 13.1613 111.817 13.1627 112.057 13.5712C112.447 14.2279 113.36 14.6831 114.299 14.6872C116.014 14.694 116.857 13.929 117.038 12.2057C117.126 11.3571 117.015 11.1734 116.665 11.5943C116.566 11.7135 116.235 11.9452 115.929 12.1084C115.457 12.3606 115.148 12.4073 113.932 12.4073C112.739 12.4073 112.381 12.3552 111.841 12.107C110.869 11.6573 109.784 10.5606 109.321 9.55839C108.971 8.79887 108.927 8.55484 108.927 7.33468C108.927 6.11452 108.971 5.87048 109.321 5.11097C109.784 4.10879 110.869 3.01202 111.841 2.56234C112.374 2.31694 112.742 2.2621 113.863 2.2621C115.309 2.2621 116.002 2.48282 116.776 3.19298L117.085 3.4754V2.33065H119.565L119.524 7.84879L119.484 13.3669L119.085 14.2293C118.586 15.3123 117.523 16.3186 116.462 16.7162C115.519 17.0685 113.5 17.1001 112.572 16.7752ZM115.001 10.1205C115.812 9.91621 116.99 8.80024 117.13 8.10379C117.293 7.28669 117.229 6.78629 116.874 6.09395C116.484 5.33718 115.94 4.84637 115.187 4.57903C112.987 3.7921 110.722 5.84169 111.324 8.07637C111.543 8.89484 112.432 9.82161 113.231 10.0684C114.029 10.3138 114.211 10.3193 115.001 10.1205ZM66.7757 12.7377C65.7667 12.5389 64.9729 11.9617 64.5424 11.1144C64.1667 10.3714 64.1654 10.3645 64.1654 7.4471V4.52419H62.246V2.34298L63.1714 2.30323L64.0968 2.2621V0H66.6331V2.33065H69.6492V4.52419H66.6331V7.07008C66.6331 8.4904 66.6934 9.72702 66.7688 9.8696C67.0458 10.3865 68.1563 10.5249 69.4436 10.2014L69.7863 10.115V12.5731L68.8349 12.7294C67.7683 12.9063 67.6394 12.9063 66.7757 12.7377ZM44.8279 12.5512C43.3774 12.0165 42.1709 10.9581 41.5375 9.66532C41.2428 9.06484 41.2017 8.79339 41.2017 7.47177C41.2017 6.0775 41.2318 5.90476 41.602 5.17266C43.0648 2.2854 46.765 1.30379 49.3589 3.11621C50.7847 4.1129 51.5168 5.44823 51.6512 7.3004L51.7293 8.3629H43.583L43.6735 8.67137C43.812 9.14024 44.4646 9.90661 44.9869 10.2137C45.3447 10.4248 45.6888 10.4865 46.4799 10.4797C47.5328 10.4728 48.1497 10.2658 48.7461 9.7229C49.0162 9.47613 49.0518 9.47613 50.0828 9.75992C50.6655 9.92032 51.1412 10.1136 51.1412 10.189C51.1412 10.4742 50.4036 11.2735 49.7236 11.7245C48.6666 12.4251 47.5849 12.7514 46.3551 12.7404C45.7834 12.7349 45.0952 12.6499 44.8279 12.5512ZM49.0847 6.35306C49.0847 6.30234 48.9312 5.99935 48.742 5.67718C48.243 4.82718 47.1722 4.31992 46.1056 4.4296C45.15 4.52831 44.3521 5.0479 43.8997 5.86637L43.5803 6.44355H46.3332C47.8467 6.44355 49.0847 6.40242 49.0847 6.35306ZM73.1987 12.4347C72.3007 12.0563 71.7989 11.7149 71.2135 11.0829C68.7581 8.43419 69.6122 4.1746 72.9094 2.62952C73.5963 2.30734 73.8636 2.2621 75.0673 2.2621C76.3396 2.2621 76.5082 2.295 77.3445 2.70629C78.4317 3.24097 79.3941 4.22258 79.9068 5.31661C80.229 6.00347 80.2742 6.27081 80.2742 7.47177C80.2742 8.67274 80.229 8.94008 79.9068 9.62694C79.3955 10.7169 78.4303 11.7026 77.3554 12.2318C76.5863 12.6102 76.2902 12.6773 75.2154 12.7144C74.1488 12.7527 73.8567 12.713 73.1987 12.4347ZM76.308 10.1602C77.9271 9.42403 78.4961 7.13726 77.4117 5.72379C76.8221 4.95605 76.3725 4.65306 75.6157 4.51048C74.6121 4.32403 73.8279 4.58177 73.0575 5.35226C71.8853 6.52581 71.7921 8.12298 72.8244 9.37468C73.3742 10.041 74.1775 10.4139 75.0646 10.4139C75.4416 10.4139 76.0009 10.2987 76.308 10.1602ZM83.8196 12.6006C82.5596 12.2359 81.3189 10.8923 81.0406 9.59266C80.957 9.20194 80.8912 7.45944 80.8912 5.61411V2.33065H83.4782L83.5221 5.66621L83.5646 9.00177L83.9594 9.52C85.1988 11.1419 87.6528 10.4756 88.1861 8.36976C88.2862 7.97629 88.4 7.81452 88.5768 7.81452C89.2513 7.81452 90.1781 8.46573 90.5688 9.2129C90.7018 9.46653 90.7621 10.0602 90.7621 11.098V12.6129H88.2944V11.5038L87.7803 11.9151C87.4979 12.1427 86.9961 12.4223 86.6657 12.5389C86.0159 12.7678 84.5092 12.8007 83.8196 12.6006ZM101.024 12.5348C100.322 12.3181 99.2114 11.5394 98.6891 10.8992C97.7513 9.74621 97.4209 8.68645 97.5046 7.09613C97.6101 5.10823 98.6068 3.5604 100.329 2.71315C101.169 2.29911 101.35 2.2621 102.55 2.2621C103.921 2.26347 104.638 2.49653 105.3 3.15871C105.567 3.42605 105.569 3.42331 105.569 2.87903V2.33065H108.173V12.6129H105.569V11.6587L104.922 12.0686C104.566 12.2948 104.058 12.5402 103.79 12.6143C103.106 12.8035 101.775 12.7665 101.024 12.5348ZM104 10.2C104.764 9.83807 105.517 8.90992 105.685 8.12161C106.21 5.67581 103.633 3.61798 101.445 4.73669C100.547 5.19734 99.8119 6.42573 99.8119 7.47177C99.8119 8.56169 100.584 9.80379 101.515 10.2123C102.106 10.4715 103.442 10.466 104 10.2ZM123.951 12.5252C122.607 12.0549 121.45 11.0294 120.825 9.75581C120.478 9.04976 120.444 8.84274 120.444 7.47177C120.444 6.10492 120.479 5.89242 120.819 5.20008C121.948 2.90508 124.7 1.67806 127.134 2.38548C128.194 2.69395 129.508 3.70984 130.076 4.66129C130.66 5.63605 130.814 6.15839 130.873 7.36895L130.921 8.3629H126.882C124.005 8.3629 122.843 8.40677 122.843 8.51508C122.843 8.87427 123.457 9.71605 123.956 10.0396C125.003 10.7182 126.688 10.6442 127.755 9.87234L128.299 9.4775L129.341 9.7654C129.914 9.92307 130.383 10.1109 130.383 10.1822C130.383 10.4591 129.526 11.3722 128.875 11.7903C127.468 12.6938 125.338 13.0105 123.951 12.5252ZM128.327 6.36815C128.327 6.16798 127.899 5.51266 127.551 5.18226C126.191 3.89081 123.901 4.26645 123.036 5.92258C122.929 6.12685 122.843 6.32702 122.843 6.36815C122.843 6.40927 124.077 6.44355 125.585 6.44355C127.093 6.44355 128.327 6.40927 128.327 6.36815ZM52.238 7.47726V2.33065H54.8647L54.8003 2.81048C54.7646 3.07371 54.7756 3.28895 54.8236 3.28758C54.8716 3.28621 55.1828 3.10113 55.5159 2.87629C56.3262 2.32653 57.0514 2.15105 58.2085 2.22508C59.9277 2.33339 61.3384 3.3479 61.8567 4.84637C62.065 5.45097 62.1007 6.06242 62.1048 9.08266L62.1089 12.6129H59.659L59.6165 9.4254C59.5658 5.73887 59.4945 5.45645 58.4525 4.84637C57.2571 4.14581 55.7819 4.6229 55.0841 5.93766C54.7975 6.47645 54.777 6.69718 54.755 9.52823L54.7331 12.5444L53.4855 12.5841L52.238 12.6239V7.47726ZM91.5505 11.2077C91.5751 10.4344 91.6245 9.66532 91.6601 9.49669C91.815 8.77419 93.0201 7.81452 93.7742 7.81452C94.0429 7.81452 94.0525 7.89266 94.0525 10.2137V12.6129H91.5066L91.5505 11.2077ZM88.2944 4.66129V2.33065H90.7621V3.77565C90.7621 4.94919 90.7114 5.32073 90.488 5.75806C90.1809 6.35855 89.2431 6.99194 88.6591 6.99194H88.2944V4.66129ZM92.7953 6.6821C91.8068 6.07887 91.6615 5.75121 91.5847 3.94427L91.5162 2.33065H94.0525V3.73589L94.6571 3.17927C95.4632 2.43621 96.9397 1.99476 97.6746 2.27718C97.8501 2.34435 97.8912 2.59798 97.8912 3.63169V4.90395L97.0343 4.83952C96.2899 4.78468 96.0788 4.82718 95.4234 5.16444C94.7887 5.49073 94.6146 5.66621 94.3267 6.27218C93.9291 7.1071 93.6234 7.18936 92.7953 6.6821Z" fill="black"/>
</g>
</g>
<defs>
<clipPath id="clip0_2436_2352">
<rect width="131" height="17" fill="white"/>
</clipPath>
<clipPath id="clip1_2436_2352">
<rect width="89.7984" height="17" fill="white" transform="translate(41.2017)"/>
</clipPath>
</defs>
</svg>
