<svg width="103" height="17" viewBox="0 0 103 17" fill="none" xmlns="http://www.w3.org/2000/svg">
<g clip-path="url(#clip0_2436_2359)">
<g clip-path="url(#clip1_2436_2359)">
<path d="M0.178758 13.6758C0.0800407 13.5797 0 11.1172 0 8.20634V2.91565H5.02656L5.86432 5.65037C6.32322 7.15514 6.78479 8.66524 6.89151 9.00675C7.04092 9.48699 7.29438 8.86534 8.00941 6.27202L8.93255 2.91565H14.1405V8.22235C14.1405 14.164 14.2499 13.8545 12.1262 13.8545H10.9522L10.8802 10.0526L10.8055 6.25068L10.0611 8.6519C9.65291 9.97257 9.1113 11.6534 8.85784 12.3871L8.39894 13.7211H6.94487C5.27468 13.7211 5.52815 14.116 3.94334 9.0521L3.06823 6.25068L2.99352 10.0526L2.92149 13.8545H1.63817C0.933808 13.8545 0.274806 13.7745 0.178758 13.6758ZM14.9409 13.5984C14.9409 13.4944 15.8827 11.0798 17.0353 8.23035L19.1324 3.04905H23.5987L25.6504 8.1183C26.7816 10.9064 27.7154 13.337 27.7261 13.521C27.7421 13.7558 27.2379 13.8545 26.0346 13.8545H24.3244L23.8895 12.7206L23.4573 11.5867L21.4029 11.6294C19.2498 11.6721 19.1831 11.7095 18.6815 13.1235C18.4307 13.8332 18.3533 13.8599 16.6805 13.8225C15.7227 13.8039 14.9409 13.7025 14.9409 13.5984ZM22.6088 8.9854C22.5368 8.80131 22.262 7.96088 21.9979 7.11779C21.7311 6.27469 21.4456 5.58367 21.3629 5.58367C21.2802 5.58367 20.9947 6.27469 20.7305 7.11779C20.4664 7.96088 20.1863 8.80131 20.1089 8.9854C20.0048 9.22819 20.3437 9.31891 21.3495 9.31891C22.3474 9.31891 22.6996 9.22553 22.6088 8.9854ZM28.74 13.6678C28.6733 13.5504 28.5959 11.0825 28.5665 8.185L28.5132 2.91565H32.2617L32.3391 4.89532L32.4165 6.87233L34.1507 4.914L35.8849 2.95567L37.9767 2.93432L40.0657 2.91565L38.0487 5.08742C36.9255 6.2987 36.1117 7.38993 36.2104 7.55534C36.3091 7.71809 37.2083 9.09479 38.2061 10.6129C39.2039 12.131 40.0204 13.4837 40.0204 13.6224C40.0204 13.8919 36.76 13.8866 36.3438 13.6171C36.2051 13.5264 35.5274 12.5712 34.8364 11.4907L33.5824 9.52434L32.9448 10.1247C32.4458 10.5916 32.2911 11.0505 32.2297 12.2217L32.1497 13.7211L30.5062 13.8012C29.6017 13.8439 28.8067 13.7825 28.74 13.6678ZM41.2663 13.6758C41.1676 13.5797 41.0876 11.1172 41.0876 8.20634V2.91565H50.4257V5.31687H44.556V7.22451L47.2907 7.14714L50.0255 7.07243L50.1082 8.19567L50.1882 9.31891H44.556V11.1865H50.4257V13.8545H45.9354C43.4648 13.8545 41.3624 13.7745 41.2663 13.6758ZM51.6716 13.6758C51.5729 13.5797 51.4929 11.1172 51.4929 8.20634V2.91565H55.3695C59.633 2.91565 60.6122 3.14777 61.586 4.38573C61.9675 4.87131 62.165 5.49563 62.165 6.21866C62.1623 7.37125 61.3886 8.95872 60.6949 9.22286C60.1293 9.43897 60.1746 9.59905 61.3459 11.6214C61.9248 12.6166 62.3491 13.5077 62.2904 13.6011C62.2317 13.6971 61.4766 13.7959 60.6122 13.8225C58.8246 13.8759 58.7392 13.8119 57.4959 11.4827C56.7969 10.1753 56.5941 9.98591 55.8951 9.98591H55.0947L55.0173 11.9202L54.9373 13.8545H53.3925C52.5441 13.8545 51.7677 13.7745 51.6716 13.6758ZM58.1096 7.39793C58.6005 6.90701 58.5071 5.59701 57.9628 5.38624C57.7067 5.28752 56.957 5.20215 56.2953 5.19414L55.0947 5.18347L55.0147 6.45078L54.932 7.71809H56.362C57.1464 7.71809 57.9335 7.57402 58.1096 7.39793ZM68.4909 13.6891C68.3868 13.5851 68.3014 11.1172 68.3014 8.20634V2.91565H73.3547L74.1844 5.65037C74.6406 7.15514 75.0995 8.67324 75.2063 9.02809C75.3583 9.53502 75.5985 8.97473 76.3375 6.36007L77.2767 3.04905L79.8646 2.97168L82.4526 2.89697L82.3806 8.30773L82.3085 13.7211H79.3737L79.2403 9.98591L79.1069 6.25068L78.3946 8.5185C78.0024 9.76714 77.5328 11.3253 77.3487 11.9869C76.8578 13.7425 76.6764 13.8919 75.1316 13.8012L73.7735 13.7211L72.6556 10.1193L71.5351 6.51748L71.4524 10.1193L71.3697 13.7211L70.025 13.7985C69.2859 13.8439 68.5949 13.7932 68.4909 13.6891ZM83.6879 13.6758C83.5892 13.5797 83.5092 11.1172 83.5092 8.20634V2.91565H86.9776V13.8545H85.4221C84.5657 13.8545 83.784 13.7745 83.6879 13.6758ZM88.3116 8.41978V2.91565H91.78V10.9197H120.355L120.275 12.2404L120.194 13.5584L104.253 13.7398L88.3116 13.9212V8.41978ZM121.579 13.6838C121.478 13.5824 121.395 11.1172 121.395 8.20634V2.91565H130.733V5.29819L127.865 5.37557L124.997 5.45027V7.05109L127.732 7.12579L130.466 7.20316V9.30023L127.732 9.3776L124.997 9.45231L124.914 10.3114L124.832 11.1678L127.849 11.2452L130.867 11.3199V13.7211L126.315 13.7932C123.812 13.8332 121.681 13.7852 121.579 13.6838Z" fill="black"/>
</g>
</g>
<defs>
<clipPath id="clip0_2436_2359">
<rect width="103" height="17" fill="white"/>
</clipPath>
<clipPath id="clip1_2436_2359">
<rect width="131" height="11.2057" fill="white" transform="translate(0 2.89697)"/>
</clipPath>
</defs>
</svg>
