<svg width="131" height="17" viewBox="0 0 131 17" fill="none" xmlns="http://www.w3.org/2000/svg">
<g clip-path="url(#clip0_2436_2344)">
<g clip-path="url(#clip1_2436_2344)">
<g clip-path="url(#clip2_2436_2344)">
<path d="M76.0692 14.8233L76.0362 12.7136L72.2509 12.6818C70.1693 12.6635 68.4351 12.5999 68.3984 12.54C68.3617 12.48 68.3458 9.86643 68.3642 6.73305L68.3972 1.03377H79.3995V16.933H76.1034L76.0692 14.8233ZM75.9469 6.75139L75.9799 3.96902H71.6944V9.60103L73.8042 9.56679L75.9139 9.53377L75.9469 6.75139ZM59.5865 13.0108C58.4858 12.8482 57.1429 12.173 56.5975 11.5065C56.1144 10.9182 55.7413 10.1282 55.6203 9.44204L55.5396 8.98341H57.1955C58.7316 8.98341 58.8527 9.00053 58.8527 9.21211C58.8527 9.55334 59.3028 10.0597 59.8617 10.3446C60.5283 10.6846 61.9702 10.6369 62.479 10.2578C63.1076 9.78816 63.0575 8.9724 62.3799 8.64708C62.205 8.56391 61.3465 8.33276 60.472 8.13463C57.6627 7.49621 56.8885 7.10852 56.2868 6.03715C56.0385 5.59442 55.9847 5.33391 55.9872 4.58053C55.9957 2.13938 57.7116 0.77571 60.8096 0.748804C62.5621 0.734128 63.9038 1.14751 64.8785 2.00362C65.3898 2.45247 65.9108 3.39542 66.0184 4.06808L66.1003 4.58053H64.5251L62.9498 4.57931L62.7052 4.1219C62.3775 3.50672 61.8039 3.23521 60.8316 3.23521C59.7467 3.23521 59.2319 3.55319 59.2233 4.22952C59.2172 4.79211 59.3652 4.85326 62.1316 5.44398C63.0929 5.64945 64.1166 5.91974 64.4065 6.04326C65.7273 6.60952 66.3804 7.74082 66.2826 9.28916C66.1762 10.9782 65.2088 12.2024 63.5381 12.7638C62.6392 13.0646 60.7533 13.1833 59.5865 13.0108ZM97.011 12.9729C94.6371 12.4482 93.4581 10.5477 94.1271 8.3242C94.6065 6.72938 95.8112 6.02981 98.996 5.49657C100.023 5.32413 100.963 5.1529 101.085 5.11621C101.385 5.02449 101.585 4.54751 101.487 4.15736C101.354 3.62657 100.755 3.35873 99.7016 3.35873C98.6193 3.35873 98.1007 3.60578 97.7815 4.27355L97.5772 4.70283H94.5331L94.6163 4.18794C94.8108 2.97103 95.5898 1.87888 96.6441 1.34564C97.4672 0.928588 98.4016 0.750027 99.7628 0.746358C101.711 0.742689 103.006 1.16708 103.868 2.0929C104.91 3.21197 104.961 3.48715 104.961 8.06247C104.961 11.1115 104.995 11.8856 105.144 12.2428C105.246 12.4849 105.328 12.7051 105.328 12.732C105.328 12.7589 104.547 12.7662 103.592 12.7479L101.857 12.7136L101.754 12.3161C101.636 11.8624 101.535 11.8269 101.25 12.1412C100.948 12.4751 100.062 12.8812 99.336 13.0194C98.519 13.1735 97.8634 13.1612 97.011 12.9729ZM100.524 10.1037C101.323 9.69276 101.658 9.10204 101.658 8.09916C101.658 7.6442 101.612 7.27118 101.555 7.27118C101.321 7.27118 98.4236 8.02456 98.0395 8.18477C97.5014 8.40981 97.1749 9.04823 97.3412 9.54844C97.406 9.7429 97.6457 10.0303 97.8769 10.1881C98.2426 10.4388 98.4028 10.4682 99.1513 10.4205C99.6992 10.3862 100.193 10.2725 100.524 10.1037ZM119.637 12.9717C117.786 12.5595 116.386 11.3035 115.634 9.38211C115.351 8.65808 115.31 8.37312 115.302 7.08772C115.295 5.53938 115.426 4.93521 116.039 3.71096C117.098 1.59636 119.608 0.396574 122.171 0.776933C123.42 0.962833 124.26 1.36643 125.129 2.19564C126.255 3.26823 126.858 4.75665 127.048 6.93485L127.132 7.88269H118.781V8.22391C118.781 8.76326 119.502 9.84319 120.049 10.1245C121.08 10.6541 122.391 10.4804 123.125 9.71477L123.474 9.35031H125.164C126.245 9.35031 126.853 9.39557 126.853 9.47629C126.853 9.7637 126.227 10.8082 125.709 11.383C124.414 12.8237 121.913 13.478 119.637 12.9717ZM123.456 5.48924C123.496 5.45132 123.471 5.21772 123.403 4.96945C123.097 3.86262 122.263 3.30247 121.037 3.37952C119.905 3.45168 119.03 4.15981 118.828 5.16636L118.75 5.55895H121.069C122.345 5.55895 123.418 5.52715 123.456 5.48924ZM84.3894 12.8482C83.2422 12.54 82.4277 11.778 81.9324 10.5501C81.6841 9.93614 81.667 9.66096 81.6254 5.52837L81.5826 1.15607H85.0254V4.97801C85.0254 9.24391 85.0486 9.38089 85.8693 9.9288C86.4221 10.2982 87.4788 10.3128 88.0597 9.95816C88.7825 9.51787 88.8167 9.29283 88.8167 5.01226V1.15607H92.2412V12.7748H88.939V11.6435L88.3997 12.14C87.5154 12.9558 85.8693 13.2469 84.3894 12.8482ZM107.613 12.6965C107.567 12.65 107.529 10.034 107.529 6.88348V1.15607H110.955L110.892 2.22621L110.829 3.29636L111.03 2.757C111.284 2.07701 112.114 1.23679 112.738 1.02765C113.001 0.939595 113.601 0.863768 114.072 0.858876L114.928 0.850315V3.90787L113.95 3.97513C112.916 4.04729 112.437 4.23075 111.91 4.75787C111.178 5.48924 111.142 5.68981 111.076 9.35031L111.015 12.7136L109.356 12.7479C108.445 12.7662 107.661 12.743 107.613 12.6965ZM128.922 2.02197C128.437 1.53521 128.434 0.939595 128.916 0.39902C129.504 -0.257743 130.499 -0.0779587 130.843 0.748804C131.353 1.96816 129.859 2.95758 128.922 2.02197ZM130.466 1.88377C130.94 1.36031 130.649 0.419811 129.962 0.247365C129.617 0.16053 128.998 0.440602 128.885 0.732905C128.736 1.1206 128.813 1.57312 129.075 1.85197C129.424 2.22254 130.145 2.23967 130.466 1.88377ZM129.256 1.66607C128.988 1.36888 129 0.9983 129.288 0.737797C129.57 0.482185 130.216 0.518876 130.216 0.789164C130.216 0.915135 130.116 0.960387 129.896 0.935926C129.552 0.895566 129.375 1.12794 129.542 1.39823C129.602 1.49607 129.754 1.52787 129.94 1.48017C130.302 1.38967 130.447 1.50096 130.261 1.726C130.066 1.96204 129.493 1.9278 129.256 1.66607Z" fill="black"/>
</g>
</g>
</g>
<defs>
<clipPath id="clip0_2436_2344">
<rect width="131" height="17" fill="white"/>
</clipPath>
<clipPath id="clip1_2436_2344">
<rect width="131" height="17" fill="white"/>
</clipPath>
<clipPath id="clip2_2436_2344">
<rect width="75.4604" height="17" fill="white" transform="translate(55.5396)"/>
</clipPath>
</defs>
</svg>
