<svg width="223" height="20" viewBox="0 0 223 20" fill="none" xmlns="http://www.w3.org/2000/svg">
<path d="M21.5837 0H14.6767L5.96484 20H12.9331L21.5837 0Z" fill="#0130BA" fill-opacity="0.3"/>
<path d="M14.569 0H21.4759L30.0293 20H23.061L14.569 0Z" fill="#0130BA" fill-opacity="0.7"/>
<path d="M12.9102 19.9998H5.94187L1.69585 9.99981L0.000318527 5.83313H6.93028L8.63348 9.99981L12.9102 19.9998Z" fill="#0130BA"/>
<path d="M23.93 0H30.9955L39.5488 20H32.5805L23.93 0Z" fill="#0130BA"/>
<path d="M53.7323 19.871C49.3631 19.871 47.0977 17.2549 47.0977 13.2634V12.1846H51.1971V13.2634C51.1971 15.1513 51.8713 16.2301 53.7323 16.2301C55.5932 16.2301 56.2674 15.1513 56.2674 13.2634V0.129028H60.5287V13.2634C60.5287 17.2549 58.1014 19.871 53.7323 19.871Z" fill="#0130BA"/>
<path d="M75.4053 19.5474L74.0568 15.7176H65.8849L64.5364 19.5474H60.1942L67.4491 0.129028H72.4655L79.9092 19.5474H75.4053ZM67.1255 12.1306H72.7892L69.9573 4.03967L67.1255 12.1306Z" fill="#0130BA"/>
<path d="M85.5594 19.5474L78.4393 0.129028H82.9703L88.1215 15.7446L93.1649 0.129028H97.6958L90.5488 19.5474H85.5594Z" fill="#0130BA"/>
<path d="M106.432 19.5474L101.685 5.11846V19.5474H97.6127V0.129028H103.897L108.239 14.0994L112.554 0.129028H118.811V19.5474H114.766V5.11846L110.019 19.5474H106.432Z" fill="#0130BA"/>
<path d="M125.089 19.5474V0.129028H132.856C137.441 0.129028 139.545 2.85299 139.545 6.08938C139.545 9.32577 137.441 12.0497 132.856 12.0497H127.462V19.5474H125.089ZM127.462 9.89214H132.856C135.823 9.89214 137.09 8.24697 137.09 6.08938C137.09 3.93179 135.823 2.28662 132.856 2.28662H127.462V9.89214Z" fill="#0130BA"/>
<path d="M150.317 19.5474V17.7943C149.104 19.3586 147.485 19.871 145.84 19.871C142.685 19.871 140.77 18.3877 140.77 15.7446C140.77 13.2634 142.685 11.9688 145.813 11.3755L150.209 10.5394V9.46062C150.209 7.78849 149.077 7.19515 147.135 7.19515C145.463 7.19515 143.629 7.70758 143.521 9.8382H141.255C141.363 6.43999 144.168 5.19937 147.135 5.19937C150.749 5.19937 152.421 6.76363 152.421 9.24486V19.5474H150.317ZM143.116 15.6907C143.116 16.9852 143.952 17.8752 145.948 17.8752C147.998 17.8752 150.209 16.7155 150.209 13.9916V12.4543L146.137 13.2904C144.33 13.6679 143.116 14.0995 143.116 15.6907Z" fill="#0130BA"/>
<path d="M154.781 19.5474V5.52301H156.938V7.8694C158.071 5.87362 159.716 5.36119 161.415 5.36119H162.467V7.54576H161.361C158.988 7.54576 157.046 8.54364 157.046 12.0497V19.5474H154.781Z" fill="#0130BA"/>
<path d="M165.697 1.20783H167.963V5.52301H171.739V7.51879H167.963V16.0952C167.963 17.1201 168.394 17.5516 169.419 17.5516H171.739V19.5474H168.988C166.56 19.5474 165.697 18.5225 165.697 16.3649V7.51879H163.108V5.52301H165.697V1.20783Z" fill="#0130BA"/>
<path d="M182.985 10.5394C182.985 8.59758 181.96 7.24909 179.802 7.24909C178.832 7.24909 175.838 7.70758 175.838 11.6991V19.5474H173.572V5.52301H175.73V7.54576C176.674 6.22423 178.157 5.19937 180.234 5.19937C183.794 5.19937 185.223 7.84243 185.223 10.3237V19.5474H182.985V10.5394Z" fill="#0130BA"/>
<path d="M193.866 19.871C189.901 19.871 187.312 16.7425 187.312 12.5352C187.312 8.32789 189.901 5.19937 193.866 5.19937C197.83 5.19937 200.419 8.32789 200.419 12.5352V13.3443H189.712C189.955 15.9873 191.384 17.8213 193.866 17.8213C195.7 17.8213 197.129 16.8774 197.776 15.2861H200.123C199.233 18.064 196.913 19.871 193.866 19.871ZM189.766 11.2946H197.965C197.614 8.89425 196.212 7.24909 193.866 7.24909C191.519 7.24909 190.117 8.89425 189.766 11.2946Z" fill="#0130BA"/>
<path d="M202.504 19.5474V5.52301H204.662V7.8694C205.794 5.87362 207.44 5.36119 209.139 5.36119H210.191V7.54576H209.085C206.711 7.54576 204.77 8.54364 204.77 12.0497V19.5474H202.504Z" fill="#0130BA"/>
<path d="M216.981 19.871C213.61 19.871 211.182 18.3607 210.994 14.9625H213.286C213.502 17.1201 214.743 17.9022 216.981 17.9022C219.058 17.9022 220.298 17.1471 220.298 15.7986C220.298 14.5579 219.867 14.0185 216.765 13.5061C212.477 12.8049 211.425 11.4025 211.425 9.19092C211.425 6.76363 213.583 5.19937 216.576 5.19937C220.11 5.19937 222.294 6.87151 222.321 9.8382H220.056C219.975 7.73455 218.491 7.16818 216.576 7.16818C214.985 7.16818 213.691 7.8694 213.691 9.16395C213.691 10.4585 214.392 10.917 217.332 11.4294C221.458 12.1576 222.591 13.3443 222.591 15.6637C222.591 18.3607 220.19 19.871 216.981 19.871Z" fill="#0130BA"/>
</svg>
