<svg width="538" height="193" viewBox="0 0 538 193" fill="none" xmlns="http://www.w3.org/2000/svg">
<g filter="url(#filter0_g_4049_100)">
<path d="M2 191V2C2 2 159.659 39.902 262.946 55.5C368.562 71.45 536 85.5 536 85.5V108.5C536 108.5 368.598 122.839 262.946 138.5C159.709 153.803 2 191 2 191Z" fill="url(#paint0_linear_4049_100)" fill-opacity="0.2"/>
<path d="M129.819 126V68C129.819 68 253.427 80.4286 332.91 86C412.091 91.5503 536 96.5 536 96.5C536 96.5 412.086 101.755 332.91 107.5C253.421 113.267 129.819 126 129.819 126Z" fill="url(#paint1_linear_4049_100)" fill-opacity="0.4"/>
</g>
<defs>
<filter id="filter0_g_4049_100" x="0" y="0" width="538" height="193" filterUnits="userSpaceOnUse" color-interpolation-filters="sRGB">
<feFlood flood-opacity="0" result="BackgroundImageFix"/>
<feBlend mode="normal" in="SourceGraphic" in2="BackgroundImageFix" result="shape"/>
<feTurbulence type="fractalNoise" baseFrequency="0.66666668653488159 0.66666668653488159" numOctaves="3" seed="2765" />
<feDisplacementMap in="shape" scale="4" xChannelSelector="R" yChannelSelector="G" result="displacedImage" width="100%" height="100%" />
<feMerge result="effect1_texture_4049_100">
<feMergeNode in="displacedImage"/>
</feMerge>
</filter>
<linearGradient id="paint0_linear_4049_100" x1="2" y1="96.4999" x2="536" y2="96.4999" gradientUnits="userSpaceOnUse">
<stop stop-color="white" stop-opacity="0"/>
<stop offset="1" stop-color="white"/>
</linearGradient>
<linearGradient id="paint1_linear_4049_100" x1="129.819" y1="97" x2="536" y2="97" gradientUnits="userSpaceOnUse">
<stop stop-color="white" stop-opacity="0"/>
<stop offset="1" stop-color="white"/>
</linearGradient>
</defs>
</svg>
