<svg width="204" height="28" viewBox="0 0 204 28" fill="none" xmlns="http://www.w3.org/2000/svg">
<path d="M21.5846 4H14.6777L5.96582 24H12.9341L21.5846 4Z" fill="white" fill-opacity="0.3"/>
<path d="M14.5678 4H21.4747L30.0281 24H23.0598L14.5678 4Z" fill="white" fill-opacity="0.7"/>
<path d="M12.9099 24H5.94163L1.69562 14L9.05991e-05 9.83334H6.93005L8.63324 14L12.9099 24Z" fill="white"/>
<path d="M23.9293 4H30.9948L39.5481 24H32.5798L23.9293 4Z" fill="white"/>
<path d="M48.0279 17.912V16.664H51.7719V17.912C51.7719 18.848 52.2999 19.712 53.7879 19.712C55.2279 19.712 55.7799 18.968 55.7799 17.768V5.24H59.6679V18.008C59.6679 21.056 57.4119 23.312 53.8359 23.312C49.9239 23.312 48.0279 20.984 48.0279 17.912ZM64.7227 23H60.6667L67.0027 5.24H70.7947L77.1067 23H72.9787L71.7307 19.256H65.9947L64.7227 23ZM68.3947 12.2L67.1227 15.992H70.6267L69.3547 12.2C69.1627 11.6 68.9467 10.904 68.8747 10.472C68.8027 10.88 68.6107 11.552 68.3947 12.2ZM80.968 23L74.32 5.24H78.472L81.832 14.216C82.24 15.32 82.576 16.424 82.96 17.96C83.416 16.256 83.752 15.272 84.136 14.216L87.448 5.24H91.504L84.976 23H80.968ZM96.8879 23H93.1199V5.24H96.8879L102.168 18.488L107.472 5.24H111.288V23H107.52V19.28C107.52 15.44 107.52 14.6 107.712 13.28L103.944 23H100.392L96.6479 13.28C96.8639 14.6 96.8879 16.088 96.8879 18.032V23Z" fill="white"/>
<path d="M127.288 16.688H122.464V23H120.736V5.816H127.288C130.6 5.816 132.688 7.976 132.688 11.216C132.688 14.336 130.576 16.688 127.288 16.688ZM127.048 7.376H122.464V15.128H126.952C129.448 15.128 130.888 13.544 130.888 11.192C130.888 8.816 129.424 7.376 127.048 7.376ZM137.505 23.288C135.033 23.288 133.569 21.896 133.569 19.856C133.569 17.72 135.201 16.376 137.913 16.16L141.753 15.848V15.464C141.753 13.184 140.385 12.464 138.681 12.464C136.665 12.464 135.465 13.376 135.465 14.936H133.953C133.953 12.584 135.873 11.072 138.729 11.072C141.417 11.072 143.385 12.416 143.385 15.488V23H141.993L141.777 20.96C141.057 22.424 139.473 23.288 137.505 23.288ZM137.889 21.944C140.337 21.944 141.753 20.24 141.753 17.72V17.096L138.321 17.36C136.137 17.552 135.249 18.512 135.249 19.808C135.249 21.224 136.305 21.944 137.889 21.944ZM152.3 11.24V12.728H151.388C149.252 12.728 147.884 14.168 147.884 16.376V23H146.228V11.384H147.788L147.908 13.184C148.364 11.936 149.588 11.12 151.22 11.12C151.58 11.12 151.892 11.144 152.3 11.24ZM157.155 23H155.523V12.776H153.195V11.384H155.523V7.712H157.155V11.384H159.483V12.776H157.155V23ZM162.815 23H161.159V11.384H162.599L162.839 13.4C163.607 11.912 165.143 11.072 166.823 11.072C170.015 11.072 171.335 12.968 171.335 15.896V23H169.679V16.256C169.679 13.544 168.455 12.584 166.535 12.584C164.159 12.584 162.815 14.312 162.815 16.928V23ZM179.028 23.288C175.62 23.288 173.34 20.84 173.34 17.192C173.34 13.568 175.596 11.072 178.908 11.072C182.052 11.072 184.188 13.304 184.188 16.592V17.408H174.948C175.068 20.24 176.556 21.872 179.052 21.872C180.948 21.872 182.172 21.056 182.604 19.52H184.188C183.564 21.968 181.764 23.288 179.028 23.288ZM178.908 12.488C176.724 12.488 175.284 13.928 174.996 16.208H182.532C182.532 13.976 181.092 12.488 178.908 12.488ZM192.427 11.24V12.728H191.515C189.379 12.728 188.011 14.168 188.011 16.376V23H186.355V11.384H187.915L188.035 13.184C188.491 11.936 189.715 11.12 191.347 11.12C191.707 11.12 192.019 11.144 192.427 11.24ZM193.165 19.736H194.749C194.749 21.08 195.757 21.92 197.389 21.92C199.189 21.92 200.245 21.152 200.245 19.904C200.245 18.944 199.765 18.392 198.397 18.056L196.405 17.552C194.389 17.048 193.405 15.992 193.405 14.408C193.405 12.368 195.109 11.072 197.605 11.072C200.053 11.072 201.637 12.416 201.709 14.576H200.101C200.053 13.232 199.117 12.44 197.557 12.44C195.925 12.44 195.013 13.136 195.013 14.384C195.013 15.272 195.637 15.896 196.909 16.208L198.901 16.712C200.917 17.216 201.829 18.152 201.829 19.832C201.829 21.92 200.053 23.288 197.413 23.288C194.797 23.288 193.165 21.896 193.165 19.736Z" fill="white" fill-opacity="0.7"/>
</svg>
