<svg width="538" height="193" viewBox="0 0 538 193" fill="none" xmlns="http://www.w3.org/2000/svg">
<g filter="url(#filter0_g_4049_97)">
<path d="M536 191V2C536 2 378.341 39.902 275.054 55.5C169.438 71.45 2 85.5 2 85.5V108.5C2 108.5 169.402 122.839 275.054 138.5C378.291 153.803 536 191 536 191Z" fill="url(#paint0_linear_4049_97)" fill-opacity="0.2"/>
<path d="M408.181 126V68C408.181 68 284.573 80.4286 205.09 86C125.909 91.5503 2 96.5 2 96.5C2 96.5 125.914 101.755 205.09 107.5C284.579 113.267 408.181 126 408.181 126Z" fill="url(#paint1_linear_4049_97)" fill-opacity="0.4"/>
</g>
<defs>
<filter id="filter0_g_4049_97" x="0" y="0" width="538" height="193" filterUnits="userSpaceOnUse" color-interpolation-filters="sRGB">
<feFlood flood-opacity="0" result="BackgroundImageFix"/>
<feBlend mode="normal" in="SourceGraphic" in2="BackgroundImageFix" result="shape"/>
<feTurbulence type="fractalNoise" baseFrequency="0.66666668653488159 0.66666668653488159" numOctaves="3" seed="2765" />
<feDisplacementMap in="shape" scale="4" xChannelSelector="R" yChannelSelector="G" result="displacedImage" width="100%" height="100%" />
<feMerge result="effect1_texture_4049_97">
<feMergeNode in="displacedImage"/>
</feMerge>
</filter>
<linearGradient id="paint0_linear_4049_97" x1="536" y1="96.4999" x2="2" y2="96.4999" gradientUnits="userSpaceOnUse">
<stop stop-color="white" stop-opacity="0"/>
<stop offset="1" stop-color="white"/>
</linearGradient>
<linearGradient id="paint1_linear_4049_97" x1="408.181" y1="97" x2="2" y2="97" gradientUnits="userSpaceOnUse">
<stop stop-color="white" stop-opacity="0"/>
<stop offset="1" stop-color="white"/>
</linearGradient>
</defs>
</svg>
