<svg width="1566" height="193" viewBox="0 0 1566 193" fill="none" xmlns="http://www.w3.org/2000/svg">
<g filter="url(#filter0_g_2436_3430)">
<path d="M1564 191V2C1564 2 1406.34 39.902 1303.05 55.5C1197.44 71.45 1030 85.5 1030 85.5V108.5C1030 108.5 1197.4 122.839 1303.05 138.5C1406.29 153.803 1564 191 1564 191Z" fill="url(#paint0_linear_2436_3430)" fill-opacity="0.2"/>
<path d="M1436.18 126V68C1436.18 68 1312.57 80.4286 1233.09 86C1153.91 91.5503 1030 96.5 1030 96.5C1030 96.5 1153.91 101.755 1233.09 107.5C1312.58 113.267 1436.18 126 1436.18 126Z" fill="url(#paint1_linear_2436_3430)" fill-opacity="0.4"/>
</g>
<g filter="url(#filter1_g_2436_3430)">
<path d="M2 191V2C2 2 159.659 39.902 262.946 55.5C368.562 71.45 536 85.5 536 85.5V108.5C536 108.5 368.598 122.839 262.946 138.5C159.709 153.803 2 191 2 191Z" fill="url(#paint2_linear_2436_3430)" fill-opacity="0.2"/>
<path d="M129.819 126V68C129.819 68 253.427 80.4286 332.91 86C412.091 91.5503 536 96.5 536 96.5C536 96.5 412.086 101.755 332.91 107.5C253.421 113.267 129.819 126 129.819 126Z" fill="url(#paint3_linear_2436_3430)" fill-opacity="0.4"/>
</g>
<defs>
<filter id="filter0_g_2436_3430" x="1028" y="0" width="538" height="193" filterUnits="userSpaceOnUse" color-interpolation-filters="sRGB">
<feFlood flood-opacity="0" result="BackgroundImageFix"/>
<feBlend mode="normal" in="SourceGraphic" in2="BackgroundImageFix" result="shape"/>
<feTurbulence type="fractalNoise" baseFrequency="0.66666668653488159 0.66666668653488159" numOctaves="3" seed="2765" />
<feDisplacementMap in="shape" scale="4" xChannelSelector="R" yChannelSelector="G" result="displacedImage" width="100%" height="100%" />
<feMerge result="effect1_texture_2436_3430">
<feMergeNode in="displacedImage"/>
</feMerge>
</filter>
<filter id="filter1_g_2436_3430" x="0" y="0" width="538" height="193" filterUnits="userSpaceOnUse" color-interpolation-filters="sRGB">
<feFlood flood-opacity="0" result="BackgroundImageFix"/>
<feBlend mode="normal" in="SourceGraphic" in2="BackgroundImageFix" result="shape"/>
<feTurbulence type="fractalNoise" baseFrequency="0.66666668653488159 0.66666668653488159" numOctaves="3" seed="2765" />
<feDisplacementMap in="shape" scale="4" xChannelSelector="R" yChannelSelector="G" result="displacedImage" width="100%" height="100%" />
<feMerge result="effect1_texture_2436_3430">
<feMergeNode in="displacedImage"/>
</feMerge>
</filter>
<linearGradient id="paint0_linear_2436_3430" x1="1564" y1="96.4999" x2="1030" y2="96.4999" gradientUnits="userSpaceOnUse">
<stop stop-color="white" stop-opacity="0"/>
<stop offset="1" stop-color="white"/>
</linearGradient>
<linearGradient id="paint1_linear_2436_3430" x1="1436.18" y1="97" x2="1030" y2="97" gradientUnits="userSpaceOnUse">
<stop stop-color="white" stop-opacity="0"/>
<stop offset="1" stop-color="white"/>
</linearGradient>
<linearGradient id="paint2_linear_2436_3430" x1="2" y1="96.4999" x2="536" y2="96.4999" gradientUnits="userSpaceOnUse">
<stop stop-color="white" stop-opacity="0"/>
<stop offset="1" stop-color="white"/>
</linearGradient>
<linearGradient id="paint3_linear_2436_3430" x1="129.819" y1="97" x2="536" y2="97" gradientUnits="userSpaceOnUse">
<stop stop-color="white" stop-opacity="0"/>
<stop offset="1" stop-color="white"/>
</linearGradient>
</defs>
</svg>
