<svg width="28" height="21" viewBox="0 0 28 21" fill="none" xmlns="http://www.w3.org/2000/svg">
<path d="M27.8423 0C27.3436 2.10549 26.8172 4.37719 26.2632 6.81513C25.7091 9.25306 25.2104 11.6356 24.7672 13.9627C24.3239 16.2898 23.9638 18.423 23.6867 20.3623H15.7911L15.2094 19.448C15.708 17.5088 16.3452 15.431 17.1209 13.2147C17.8966 10.943 18.7555 8.67128 19.6974 6.39957C20.6393 4.12786 21.5535 1.99467 22.4401 0H27.8423ZM12.4667 0C11.968 2.10549 11.4417 4.37719 10.8876 6.81513C10.3335 9.25306 9.83484 11.6356 9.39158 13.9627C8.94832 16.2898 8.58817 18.423 8.31113 20.3623H0.498668L0 19.448C0.498668 17.5088 1.13585 15.431 1.91156 13.2147C2.68727 10.943 3.51838 8.67128 4.4049 6.39957C5.34683 4.12786 6.26105 1.99467 7.14757 0H12.4667Z" fill="#000625"/>
</svg>
