<svg width="840" height="150" viewBox="0 0 840 150" fill="none" xmlns="http://www.w3.org/2000/svg">
<g filter="url(#filter0_g_2436_3614)">
<path fill-rule="evenodd" clip-rule="evenodd" d="M539.937 5.03084C557.524 5.02399 568.458 4.39786 585.783 9.13631C614.262 16.9268 634.723 37.3648 660.05 53.1265C671.486 60.2455 678.922 62.5834 690.607 67.2584C708.605 72.2357 722.107 73.9818 739.437 74.1588C748.891 74.2552 833.424 73.543 835 74.776C834.126 76.3044 806.509 75.6679 802.82 75.6744L759.525 75.6656C731.418 75.6661 717.59 74.9974 689.703 82.8795C675.626 88.2616 665.842 92.5813 652.961 101.343C629.729 117.152 610.214 134.796 583.366 141.428C568.098 145.2 557.27 144.922 541.85 144.919L511.115 144.905L408.672 144.9L5 145V143.501L406.854 143.53L509.379 143.512L541.837 143.536C557.067 143.532 568.732 143.568 583.646 139.932C618.394 131.462 643.489 101.372 675.977 86.6334C680.104 84.7622 684.498 83.355 688.693 81.6402L688.566 80.9889C685.837 81.0484 681.182 82.7383 678.423 83.5269C655.939 89.9502 635.343 102.054 613.641 111.122C578.521 125.794 541.005 122.24 504.313 122.346L379.999 122.341L5 122.434V120.804C40.9669 121.081 76.9355 121.095 112.902 120.847L358.322 120.815L484.917 120.807L533.464 120.827C546.455 120.822 557.663 121.14 570.772 120.082C581.702 119.215 592.53 117.073 603.104 113.689C629.006 105.123 652.327 88.9298 678.63 81.9312C680.818 81.3495 691.353 79.2474 692.313 77.9439C692.312 77.9436 692.312 77.9432 692.311 77.943C686.434 78.0819 678.701 79.5874 672.787 80.4869C655.546 83.1083 638.651 87.7191 621.601 91.5885C603.502 95.7932 585.136 98.1772 566.695 98.7144C547.059 99.4116 525.745 98.786 505.894 98.7945L384.517 98.7955L5 99.0035V97.4351C46.6824 96.8694 89.7521 97.566 131.531 97.565L403.964 97.5611L506.962 97.5621C531.056 97.5716 554.486 97.6803 578.58 96.7242C616.231 95.2298 652.137 79.5116 689.091 76.8043C691.119 76.2022 695.606 75.9407 697.874 75.7398C693.759 75.0336 689.698 75.1046 685.55 75.0621C677.227 75.5244 666.897 75.1959 658.49 75.151L613.742 75.0357L463.224 75.0318L5 75.068V73.6412L487.659 73.6773L628.913 73.6451L667.531 73.5709C671.71 73.5739 683.493 73.9063 687.228 73.2935C683.518 72.22 677.996 71.6773 674.071 71.1051C668.364 70.2789 662.681 69.251 657.024 68.023C630.32 62.261 604.596 53.9983 577.182 52.9537C549.4 51.8941 521.643 52.1781 493.853 52.189L340.93 52.2183L124.633 52.2242C84.9892 52.2232 44.5771 51.7253 5 52.3971V50.9723L383.249 51.0201L504.866 51.0182C527.874 51.0211 554.156 50.3067 576.919 51.6676C590.641 52.5427 604.296 54.4521 617.811 57.3844C641.841 62.5852 665.39 69.791 690.041 71.7262L690.223 71.3473L690.688 71.7535L691.443 71.4576C690.991 70.9021 689.792 70.7557 689.031 70.5514C677.278 67.1858 669.598 65.5988 657.849 60.441C634.3 50.1064 611.57 36.1036 586.488 31.8394C561.981 27.6727 534.946 29.0438 509.97 29.0523L395.747 29.0514L5 29.0562V27.5865H381.747L501.428 27.6021C524.081 27.5931 548.233 27.0462 570.7 28.3101C586.978 29.2258 607.469 35.3831 622.454 42.3307C640.726 50.803 658.596 60.4752 677.811 66.0719C681.621 67.1827 686.149 68.6669 690.165 69.1334C690.201 69.032 690.231 68.9202 690.262 68.7867C677.623 63.4128 670.148 61.2293 657.38 53.0094C633.54 37.6558 612.982 17.8642 586.062 10.5133C569.218 5.9142 554.862 6.20972 537.739 6.20467L504.106 6.18612L401.839 6.18124L5 6.21639V5.02206L405.325 5.06209L505.36 5.04549L539.937 5.03084Z" fill="url(#paint0_linear_2436_3614)" fill-opacity="0.94902"/>
</g>
<defs>
<filter id="filter0_g_2436_3614" x="0" y="0" width="840" height="150" filterUnits="userSpaceOnUse" color-interpolation-filters="sRGB">
<feFlood flood-opacity="0" result="BackgroundImageFix"/>
<feBlend mode="normal" in="SourceGraphic" in2="BackgroundImageFix" result="shape"/>
<feTurbulence type="fractalNoise" baseFrequency="0.99900001287460327 0.99900001287460327" numOctaves="3" seed="1739" />
<feDisplacementMap in="shape" scale="10" xChannelSelector="R" yChannelSelector="G" result="displacedImage" width="100%" height="100%" />
<feMerge result="effect1_texture_2436_3614">
<feMergeNode in="displacedImage"/>
</feMerge>
</filter>
<linearGradient id="paint0_linear_2436_3614" x1="148.5" y1="74.9998" x2="835" y2="74.9998" gradientUnits="userSpaceOnUse">
<stop stop-color="white" stop-opacity="0"/>
<stop offset="1" stop-color="white"/>
</linearGradient>
</defs>
</svg>
